<mxfile host="app.diagrams.net" agent="Mozilla/5.0 (Windows NT 10.0; Win64; x64) AppleWebKit/537.36 (KHTML, like Gecko) Chrome/138.0.0.0 Safari/537.36" version="28.1.0">
  <diagram name="Page-1" id="yCXQ9Oidx16h1RXyqVqT">
    <mxGraphModel dx="2567" dy="1390" grid="1" gridSize="10" guides="1" tooltips="1" connect="1" arrows="1" fold="1" page="1" pageScale="1" pageWidth="850" pageHeight="1100" math="0" shadow="0">
      <root>
        <mxCell id="0" />
        <mxCell id="1" parent="0" />
        <mxCell id="rL4idEC9B8gkLVKM_BH1-172" value="REPORT" style="whiteSpace=wrap;html=1;" vertex="1" parent="1">
          <mxGeometry x="2510" y="1150" width="180" height="70" as="geometry" />
        </mxCell>
        <mxCell id="rL4idEC9B8gkLVKM_BH1-173" value="LOCATION" style="whiteSpace=wrap;html=1;align=center;" vertex="1" parent="1">
          <mxGeometry x="2305" y="795" width="140" height="70" as="geometry" />
        </mxCell>
        <mxCell id="rL4idEC9B8gkLVKM_BH1-174" value="&lt;div&gt;&lt;br&gt;&lt;/div&gt;CATEGORY&lt;div&gt;&lt;br&gt;&lt;/div&gt;" style="whiteSpace=wrap;html=1;align=center;" vertex="1" parent="1">
          <mxGeometry x="2810" y="780" width="110" height="60" as="geometry" />
        </mxCell>
        <mxCell id="rL4idEC9B8gkLVKM_BH1-175" value="EVIDENCE" style="whiteSpace=wrap;html=1;align=center;" vertex="1" parent="1">
          <mxGeometry x="3240" y="950" width="90" height="50" as="geometry" />
        </mxCell>
        <mxCell id="rL4idEC9B8gkLVKM_BH1-176" value="RANKING" style="whiteSpace=wrap;html=1;align=center;" vertex="1" parent="1">
          <mxGeometry x="3235" y="1320" width="115" height="60" as="geometry" />
        </mxCell>
        <mxCell id="rL4idEC9B8gkLVKM_BH1-177" value="ANALYSIS" style="whiteSpace=wrap;html=1;align=center;" vertex="1" parent="1">
          <mxGeometry x="2960" y="1650" width="160" height="80" as="geometry" />
        </mxCell>
        <mxCell id="rL4idEC9B8gkLVKM_BH1-178" value="IMPACTSTORY" style="whiteSpace=wrap;html=1;align=center;" vertex="1" parent="1">
          <mxGeometry x="2530" y="1670" width="170" height="80" as="geometry" />
        </mxCell>
        <mxCell id="rL4idEC9B8gkLVKM_BH1-179" value="&lt;div&gt;&lt;br&gt;&lt;/div&gt;USER&lt;div&gt;&lt;br&gt;&lt;/div&gt;" style="rounded=0;whiteSpace=wrap;html=1;shadow=1;" vertex="1" parent="1">
          <mxGeometry x="1723.8728751551048" y="768.5691737641089" width="70" height="40" as="geometry" />
        </mxCell>
        <mxCell id="rL4idEC9B8gkLVKM_BH1-180" value="NAME" style="ellipse;whiteSpace=wrap;html=1;align=center;rotation=-13;shadow=1;" vertex="1" parent="1">
          <mxGeometry x="1696.8428751551048" y="669.5791737641089" width="89.87" height="41.28" as="geometry" />
        </mxCell>
        <mxCell id="rL4idEC9B8gkLVKM_BH1-181" value="EMAIL" style="ellipse;whiteSpace=wrap;html=1;align=center;rotation=15;shadow=1;" vertex="1" parent="1">
          <mxGeometry x="1775.0028751551047" y="691.2291737641089" width="80" height="40" as="geometry" />
        </mxCell>
        <mxCell id="rL4idEC9B8gkLVKM_BH1-182" value="PHONE" style="ellipse;whiteSpace=wrap;html=1;align=center;rotation=-61;shadow=1;" vertex="1" parent="1">
          <mxGeometry x="1631.7328751551047" y="739.5591737641089" width="100" height="40" as="geometry" />
        </mxCell>
        <mxCell id="rL4idEC9B8gkLVKM_BH1-183" value="" style="endArrow=none;html=1;rounded=0;exitX=0.5;exitY=0;exitDx=0;exitDy=0;entryX=0.5;entryY=1;entryDx=0;entryDy=0;shadow=1;" edge="1" parent="1" source="rL4idEC9B8gkLVKM_BH1-179" target="rL4idEC9B8gkLVKM_BH1-180">
          <mxGeometry relative="1" as="geometry">
            <mxPoint x="1766.7328751551047" y="759.5591737641089" as="sourcePoint" />
            <mxPoint x="1736.7328751551047" y="719.5591737641089" as="targetPoint" />
          </mxGeometry>
        </mxCell>
        <mxCell id="rL4idEC9B8gkLVKM_BH1-184" value="" style="endArrow=none;html=1;rounded=0;entryX=0;entryY=0.5;entryDx=0;entryDy=0;exitX=0;exitY=0.5;exitDx=0;exitDy=0;shadow=1;" edge="1" parent="1" source="rL4idEC9B8gkLVKM_BH1-179" target="rL4idEC9B8gkLVKM_BH1-179">
          <mxGeometry relative="1" as="geometry">
            <mxPoint x="1716.7328751551047" y="789.5591737641089" as="sourcePoint" />
            <mxPoint x="1836.7328751551047" y="778.9691737641089" as="targetPoint" />
            <Array as="points">
              <mxPoint x="1696.7328751551047" y="769.5591737641089" />
            </Array>
          </mxGeometry>
        </mxCell>
        <mxCell id="rL4idEC9B8gkLVKM_BH1-185" value="" style="endArrow=none;html=1;rounded=0;exitX=0.75;exitY=0;exitDx=0;exitDy=0;entryX=0.5;entryY=1;entryDx=0;entryDy=0;shadow=1;" edge="1" parent="1" source="rL4idEC9B8gkLVKM_BH1-179" target="rL4idEC9B8gkLVKM_BH1-181">
          <mxGeometry relative="1" as="geometry">
            <mxPoint x="1836.7328751551047" y="778.9691737641089" as="sourcePoint" />
            <mxPoint x="1832.7328751551047" y="719.5591737641089" as="targetPoint" />
          </mxGeometry>
        </mxCell>
        <mxCell id="rL4idEC9B8gkLVKM_BH1-186" value="USER_ID" style="ellipse;whiteSpace=wrap;html=1;align=center;fontStyle=4;rotation=60;shadow=1;" vertex="1" parent="1">
          <mxGeometry x="1818.94" y="757.15" width="84.71" height="35" as="geometry" />
        </mxCell>
        <mxCell id="rL4idEC9B8gkLVKM_BH1-187" value="" style="endArrow=none;html=1;rounded=0;shadow=1;" edge="1" parent="1">
          <mxGeometry relative="1" as="geometry">
            <mxPoint x="1801.7328751551047" y="789.5591737641089" as="sourcePoint" />
            <mxPoint x="1846.7328751551047" y="789.5591737641089" as="targetPoint" />
          </mxGeometry>
        </mxCell>
        <mxCell id="rL4idEC9B8gkLVKM_BH1-188" value="&amp;nbsp;Address" style="ellipse;whiteSpace=wrap;html=1;align=center;rotation=30;shadow=1;" vertex="1" parent="1">
          <mxGeometry x="1661.7328751551047" y="819.9991737641088" width="70" height="40" as="geometry" />
        </mxCell>
        <mxCell id="rL4idEC9B8gkLVKM_BH1-189" value="street" style="ellipse;whiteSpace=wrap;html=1;align=center;rotation=30;shadow=1;" vertex="1" parent="1">
          <mxGeometry x="1648.8728751551048" y="909.5591737641089" width="90" height="30" as="geometry" />
        </mxCell>
        <mxCell id="rL4idEC9B8gkLVKM_BH1-190" value="" style="endArrow=none;html=1;rounded=0;entryX=0.388;entryY=1.032;entryDx=0;entryDy=0;entryPerimeter=0;shadow=1;" edge="1" parent="1" target="rL4idEC9B8gkLVKM_BH1-188">
          <mxGeometry relative="1" as="geometry">
            <mxPoint x="1661.7828751551046" y="869.5591737641089" as="sourcePoint" />
            <mxPoint x="1821.7828751551046" y="869.5591737641089" as="targetPoint" />
          </mxGeometry>
        </mxCell>
        <mxCell id="rL4idEC9B8gkLVKM_BH1-191" value="" style="endArrow=none;html=1;rounded=0;entryX=1;entryY=1;entryDx=0;entryDy=0;exitX=0.5;exitY=0;exitDx=0;exitDy=0;shadow=1;" edge="1" parent="1" source="rL4idEC9B8gkLVKM_BH1-189" target="rL4idEC9B8gkLVKM_BH1-188">
          <mxGeometry relative="1" as="geometry">
            <mxPoint x="1706.7328751551047" y="911.5591737641089" as="sourcePoint" />
            <mxPoint x="1886.7328751551047" y="909.5591737641089" as="targetPoint" />
          </mxGeometry>
        </mxCell>
        <mxCell id="rL4idEC9B8gkLVKM_BH1-192" value="" style="endArrow=none;html=1;rounded=0;entryX=0.25;entryY=1;entryDx=0;entryDy=0;exitX=0.5;exitY=0;exitDx=0;exitDy=0;shadow=1;" edge="1" parent="1" source="rL4idEC9B8gkLVKM_BH1-188" target="rL4idEC9B8gkLVKM_BH1-179">
          <mxGeometry relative="1" as="geometry">
            <mxPoint x="1731.7328751551047" y="839.5591737641089" as="sourcePoint" />
            <mxPoint x="1891.7328751551047" y="839.5591737641089" as="targetPoint" />
          </mxGeometry>
        </mxCell>
        <mxCell id="rL4idEC9B8gkLVKM_BH1-193" value="zip" style="ellipse;whiteSpace=wrap;html=1;align=center;rotation=-60;shadow=1;" vertex="1" parent="1">
          <mxGeometry x="1713.8728751551048" y="881.4191737641088" width="55" height="30.51" as="geometry" />
        </mxCell>
        <mxCell id="rL4idEC9B8gkLVKM_BH1-194" value="" style="endArrow=none;html=1;rounded=0;entryX=0.5;entryY=0;entryDx=0;entryDy=0;shadow=1;exitX=0.927;exitY=0.746;exitDx=0;exitDy=0;exitPerimeter=0;" edge="1" parent="1" source="rL4idEC9B8gkLVKM_BH1-188" target="rL4idEC9B8gkLVKM_BH1-193">
          <mxGeometry relative="1" as="geometry">
            <mxPoint x="1720" y="870" as="sourcePoint" />
            <mxPoint x="1898.8728751551048" y="869.5591737641089" as="targetPoint" />
            <Array as="points" />
          </mxGeometry>
        </mxCell>
        <mxCell id="rL4idEC9B8gkLVKM_BH1-195" value="city" style="ellipse;whiteSpace=wrap;html=1;align=center;rotation=75;" vertex="1" parent="1">
          <mxGeometry x="1588.75" y="843.5" width="85" height="40" as="geometry" />
        </mxCell>
        <mxCell id="rL4idEC9B8gkLVKM_BH1-196" value="Subscriptions" style="ellipse;shape=doubleEllipse;margin=3;whiteSpace=wrap;html=1;align=center;rotation=-38;" vertex="1" parent="1">
          <mxGeometry x="1789.65" y="816.62" width="85.8" height="42.37" as="geometry" />
        </mxCell>
        <mxCell id="rL4idEC9B8gkLVKM_BH1-197" value="" style="endArrow=none;html=1;rounded=0;entryX=0.32;entryY=0.098;entryDx=0;entryDy=0;entryPerimeter=0;exitX=0.75;exitY=1;exitDx=0;exitDy=0;" edge="1" parent="1" source="rL4idEC9B8gkLVKM_BH1-179" target="rL4idEC9B8gkLVKM_BH1-196">
          <mxGeometry relative="1" as="geometry">
            <mxPoint x="1756.73" y="808.5699999999999" as="sourcePoint" />
            <mxPoint x="1916.73" y="808.5699999999999" as="targetPoint" />
          </mxGeometry>
        </mxCell>
        <mxCell id="rL4idEC9B8gkLVKM_BH1-198" value="&lt;br&gt;Report_ID&lt;div&gt;&lt;br/&gt;&lt;/div&gt;" style="ellipse;whiteSpace=wrap;html=1;align=center;fontStyle=4;rotation=-45;" vertex="1" parent="1">
          <mxGeometry x="2395" y="1110" width="120" height="50" as="geometry" />
        </mxCell>
        <mxCell id="rL4idEC9B8gkLVKM_BH1-199" value="Description" style="ellipse;whiteSpace=wrap;html=1;align=center;rotation=7;" vertex="1" parent="1">
          <mxGeometry x="2530" y="1050" width="130" height="70" as="geometry" />
        </mxCell>
        <mxCell id="rL4idEC9B8gkLVKM_BH1-200" value="Date_Submitted&amp;nbsp;" style="ellipse;whiteSpace=wrap;html=1;align=center;" vertex="1" parent="1">
          <mxGeometry x="2730" y="1150" width="100" height="40" as="geometry" />
        </mxCell>
        <mxCell id="rL4idEC9B8gkLVKM_BH1-201" value="" style="endArrow=none;html=1;rounded=0;exitX=0.5;exitY=1;exitDx=0;exitDy=0;entryX=-0.013;entryY=0.404;entryDx=0;entryDy=0;entryPerimeter=0;" edge="1" parent="1" source="rL4idEC9B8gkLVKM_BH1-198" target="rL4idEC9B8gkLVKM_BH1-172">
          <mxGeometry relative="1" as="geometry">
            <mxPoint x="2385" y="1190" as="sourcePoint" />
            <mxPoint x="2545" y="1190" as="targetPoint" />
          </mxGeometry>
        </mxCell>
        <mxCell id="rL4idEC9B8gkLVKM_BH1-202" value="" style="endArrow=none;html=1;rounded=0;entryX=0.398;entryY=1.027;entryDx=0;entryDy=0;entryPerimeter=0;" edge="1" parent="1" target="rL4idEC9B8gkLVKM_BH1-199">
          <mxGeometry relative="1" as="geometry">
            <mxPoint x="2580" y="1140" as="sourcePoint" />
            <mxPoint x="2740" y="1100" as="targetPoint" />
            <Array as="points">
              <mxPoint x="2580" y="1150" />
            </Array>
          </mxGeometry>
        </mxCell>
        <mxCell id="rL4idEC9B8gkLVKM_BH1-203" value="" style="endArrow=none;html=1;rounded=0;entryX=0;entryY=1;entryDx=0;entryDy=0;" edge="1" parent="1" target="rL4idEC9B8gkLVKM_BH1-200">
          <mxGeometry relative="1" as="geometry">
            <mxPoint x="2690" y="1184" as="sourcePoint" />
            <mxPoint x="2850" y="1184" as="targetPoint" />
          </mxGeometry>
        </mxCell>
        <mxCell id="rL4idEC9B8gkLVKM_BH1-204" value="Location" style="ellipse;whiteSpace=wrap;html=1;align=center;rotation=45;" vertex="1" parent="1">
          <mxGeometry x="2439.1" y="1254.72" width="83.34" height="39.39" as="geometry" />
        </mxCell>
        <mxCell id="rL4idEC9B8gkLVKM_BH1-205" value="" style="endArrow=none;html=1;rounded=0;entryX=0;entryY=1;entryDx=0;entryDy=0;exitX=0.368;exitY=0.008;exitDx=0;exitDy=0;exitPerimeter=0;" edge="1" parent="1" source="rL4idEC9B8gkLVKM_BH1-204" target="rL4idEC9B8gkLVKM_BH1-172">
          <mxGeometry relative="1" as="geometry">
            <mxPoint x="2480" y="1237.1399999999999" as="sourcePoint" />
            <mxPoint x="2640" y="1237.1399999999999" as="targetPoint" />
            <Array as="points">
              <mxPoint x="2530" y="1220" />
            </Array>
          </mxGeometry>
        </mxCell>
        <mxCell id="rL4idEC9B8gkLVKM_BH1-206" value="" style="endArrow=none;html=1;rounded=0;entryX=0.345;entryY=0.013;entryDx=0;entryDy=0;entryPerimeter=0;" edge="1" parent="1" target="rL4idEC9B8gkLVKM_BH1-216">
          <mxGeometry relative="1" as="geometry">
            <mxPoint x="2690" y="1220" as="sourcePoint" />
            <mxPoint x="2730" y="1250" as="targetPoint" />
            <Array as="points" />
          </mxGeometry>
        </mxCell>
        <mxCell id="rL4idEC9B8gkLVKM_BH1-207" value="Longitude" style="ellipse;whiteSpace=wrap;html=1;align=center;rotation=60;" vertex="1" parent="1">
          <mxGeometry x="2355.96" y="1279.99" width="70" height="32.01" as="geometry" />
        </mxCell>
        <mxCell id="rL4idEC9B8gkLVKM_BH1-208" value="Latitude" style="ellipse;whiteSpace=wrap;html=1;align=center;rotation=15;" vertex="1" parent="1">
          <mxGeometry x="2415.26" y="1318.06" width="85" height="40" as="geometry" />
        </mxCell>
        <mxCell id="rL4idEC9B8gkLVKM_BH1-209" value="Time" style="ellipse;whiteSpace=wrap;html=1;align=center;rotation=-30;" vertex="1" parent="1">
          <mxGeometry x="2778.36" y="1313.1399999999999" width="45.49" height="21.94" as="geometry" />
        </mxCell>
        <mxCell id="rL4idEC9B8gkLVKM_BH1-210" value="Date" style="ellipse;whiteSpace=wrap;html=1;align=center;rotation=-55;" vertex="1" parent="1">
          <mxGeometry x="2823.61" y="1249.8600000000001" width="70.04" height="30" as="geometry" />
        </mxCell>
        <mxCell id="rL4idEC9B8gkLVKM_BH1-211" value="" style="endArrow=none;html=1;rounded=0;entryX=0;entryY=1;entryDx=0;entryDy=0;exitX=0.5;exitY=0;exitDx=0;exitDy=0;" edge="1" parent="1" source="rL4idEC9B8gkLVKM_BH1-207" target="rL4idEC9B8gkLVKM_BH1-204">
          <mxGeometry relative="1" as="geometry">
            <mxPoint x="2382.07" y="1263.37" as="sourcePoint" />
            <mxPoint x="2542.0699999999997" y="1263.37" as="targetPoint" />
          </mxGeometry>
        </mxCell>
        <mxCell id="rL4idEC9B8gkLVKM_BH1-212" value="" style="endArrow=none;html=1;rounded=0;entryX=0.5;entryY=1;entryDx=0;entryDy=0;" edge="1" parent="1" target="rL4idEC9B8gkLVKM_BH1-204">
          <mxGeometry relative="1" as="geometry">
            <mxPoint x="2450" y="1320" as="sourcePoint" />
            <mxPoint x="2610" y="1320" as="targetPoint" />
          </mxGeometry>
        </mxCell>
        <mxCell id="rL4idEC9B8gkLVKM_BH1-213" value="" style="endArrow=none;html=1;rounded=0;exitX=1;exitY=1;exitDx=0;exitDy=0;entryX=0.5;entryY=0;entryDx=0;entryDy=0;" edge="1" parent="1" source="rL4idEC9B8gkLVKM_BH1-216" target="rL4idEC9B8gkLVKM_BH1-210">
          <mxGeometry relative="1" as="geometry">
            <mxPoint x="2820" y="1254.1399999999999" as="sourcePoint" />
            <mxPoint x="2980" y="1254.1399999999999" as="targetPoint" />
          </mxGeometry>
        </mxCell>
        <mxCell id="rL4idEC9B8gkLVKM_BH1-214" value="" style="endArrow=none;html=1;rounded=0;exitX=0.406;exitY=0.11;exitDx=0;exitDy=0;exitPerimeter=0;" edge="1" parent="1" source="rL4idEC9B8gkLVKM_BH1-216">
          <mxGeometry relative="1" as="geometry">
            <mxPoint x="2700" y="1330" as="sourcePoint" />
            <mxPoint x="2759" y="1290" as="targetPoint" />
          </mxGeometry>
        </mxCell>
        <mxCell id="rL4idEC9B8gkLVKM_BH1-215" value="" style="endArrow=none;html=1;rounded=0;exitX=0.406;exitY=0.11;exitDx=0;exitDy=0;exitPerimeter=0;" edge="1" parent="1" source="rL4idEC9B8gkLVKM_BH1-209" target="rL4idEC9B8gkLVKM_BH1-216">
          <mxGeometry relative="1" as="geometry">
            <mxPoint x="2751" y="1334" as="sourcePoint" />
            <mxPoint x="2759" y="1290" as="targetPoint" />
          </mxGeometry>
        </mxCell>
        <mxCell id="rL4idEC9B8gkLVKM_BH1-216" value="&lt;font style=&quot;font-size: 9px;&quot; face=&quot;Times New Roman&quot;&gt;&lt;br&gt;Time_Stamp&lt;br&gt;&lt;/font&gt;" style="ellipse;whiteSpace=wrap;html=1;align=center;rotation=-45;" vertex="1" parent="1">
          <mxGeometry x="2751.6" y="1257.58" width="69.06" height="36.61" as="geometry" />
        </mxCell>
        <mxCell id="rL4idEC9B8gkLVKM_BH1-217" value="Location_ID" style="ellipse;whiteSpace=wrap;html=1;align=center;fontStyle=4;rotation=30;" vertex="1" parent="1">
          <mxGeometry x="2235" y="881.4200000000001" width="90" height="46.5" as="geometry" />
        </mxCell>
        <mxCell id="rL4idEC9B8gkLVKM_BH1-218" value="Postal_Code" style="ellipse;whiteSpace=wrap;html=1;align=center;rotation=-55;" vertex="1" parent="1">
          <mxGeometry x="2193.36" y="788.34" width="100" height="50.44" as="geometry" />
        </mxCell>
        <mxCell id="rL4idEC9B8gkLVKM_BH1-219" value="city" style="ellipse;whiteSpace=wrap;html=1;align=center;" vertex="1" parent="1">
          <mxGeometry x="2293.36" y="730" width="100" height="42.82" as="geometry" />
        </mxCell>
        <mxCell id="rL4idEC9B8gkLVKM_BH1-220" value="Region" style="ellipse;whiteSpace=wrap;html=1;align=center;rotation=30;" vertex="1" parent="1">
          <mxGeometry x="2416.66" y="730.19" width="83.48" height="41.04" as="geometry" />
        </mxCell>
        <mxCell id="rL4idEC9B8gkLVKM_BH1-221" value="" style="endArrow=none;html=1;rounded=0;entryX=0.25;entryY=1;entryDx=0;entryDy=0;" edge="1" parent="1" target="rL4idEC9B8gkLVKM_BH1-173">
          <mxGeometry relative="1" as="geometry">
            <mxPoint x="2310" y="900" as="sourcePoint" />
            <mxPoint x="2470" y="900" as="targetPoint" />
          </mxGeometry>
        </mxCell>
        <mxCell id="rL4idEC9B8gkLVKM_BH1-222" value="" style="endArrow=none;html=1;rounded=0;entryX=0;entryY=0.75;entryDx=0;entryDy=0;" edge="1" parent="1" target="rL4idEC9B8gkLVKM_BH1-173">
          <mxGeometry relative="1" as="geometry">
            <mxPoint x="2252.07" y="843.5" as="sourcePoint" />
            <mxPoint x="2412.07" y="843.5" as="targetPoint" />
          </mxGeometry>
        </mxCell>
        <mxCell id="rL4idEC9B8gkLVKM_BH1-223" value="" style="endArrow=none;html=1;rounded=0;entryX=0.434;entryY=0.036;entryDx=0;entryDy=0;entryPerimeter=0;" edge="1" parent="1" source="rL4idEC9B8gkLVKM_BH1-219" target="rL4idEC9B8gkLVKM_BH1-173">
          <mxGeometry relative="1" as="geometry">
            <mxPoint x="2382.07" y="784.84" as="sourcePoint" />
            <mxPoint x="2400" y="790" as="targetPoint" />
            <Array as="points" />
          </mxGeometry>
        </mxCell>
        <mxCell id="rL4idEC9B8gkLVKM_BH1-224" value="" style="endArrow=none;html=1;rounded=0;exitX=0.75;exitY=0;exitDx=0;exitDy=0;entryX=0.265;entryY=1.007;entryDx=0;entryDy=0;entryPerimeter=0;" edge="1" parent="1" source="rL4idEC9B8gkLVKM_BH1-173" target="rL4idEC9B8gkLVKM_BH1-220">
          <mxGeometry relative="1" as="geometry">
            <mxPoint x="2416.66" y="813.03" as="sourcePoint" />
            <mxPoint x="2576.66" y="813.03" as="targetPoint" />
          </mxGeometry>
        </mxCell>
        <mxCell id="rL4idEC9B8gkLVKM_BH1-225" value="&amp;nbsp;Category_Name" style="ellipse;whiteSpace=wrap;html=1;align=center;rotation=15;" vertex="1" parent="1">
          <mxGeometry x="2827" y="704.23" width="100" height="40" as="geometry" />
        </mxCell>
        <mxCell id="rL4idEC9B8gkLVKM_BH1-226" value=": Category_ID" style="ellipse;whiteSpace=wrap;html=1;align=center;rotation=-30;" vertex="1" parent="1">
          <mxGeometry x="2700" y="731.23" width="100" height="40" as="geometry" />
        </mxCell>
        <mxCell id="rL4idEC9B8gkLVKM_BH1-227" value="" style="endArrow=none;html=1;rounded=0;exitX=0.5;exitY=1;exitDx=0;exitDy=0;entryX=0;entryY=0.5;entryDx=0;entryDy=0;" edge="1" parent="1" source="rL4idEC9B8gkLVKM_BH1-226" target="rL4idEC9B8gkLVKM_BH1-174">
          <mxGeometry relative="1" as="geometry">
            <mxPoint x="2680" y="820" as="sourcePoint" />
            <mxPoint x="2840" y="820" as="targetPoint" />
          </mxGeometry>
        </mxCell>
        <mxCell id="rL4idEC9B8gkLVKM_BH1-228" value="" style="endArrow=none;html=1;rounded=0;entryX=0.348;entryY=0.985;entryDx=0;entryDy=0;entryPerimeter=0;exitX=0.25;exitY=0;exitDx=0;exitDy=0;" edge="1" parent="1" source="rL4idEC9B8gkLVKM_BH1-174" target="rL4idEC9B8gkLVKM_BH1-225">
          <mxGeometry relative="1" as="geometry">
            <mxPoint x="2770" y="750.28" as="sourcePoint" />
            <mxPoint x="2930" y="750.28" as="targetPoint" />
          </mxGeometry>
        </mxCell>
        <mxCell id="rL4idEC9B8gkLVKM_BH1-229" value="File_link" style="ellipse;whiteSpace=wrap;html=1;align=center;rotation=30;" vertex="1" parent="1">
          <mxGeometry x="3270" y="884.6700000000001" width="100" height="40" as="geometry" />
        </mxCell>
        <mxCell id="rL4idEC9B8gkLVKM_BH1-230" value="&amp;nbsp;Evidence_ID" style="ellipse;whiteSpace=wrap;html=1;align=center;fontStyle=4;rotation=90;" vertex="1" parent="1">
          <mxGeometry x="3340" y="970" width="100" height="40" as="geometry" />
        </mxCell>
        <mxCell id="rL4idEC9B8gkLVKM_BH1-231" value="GPS" style="ellipse;whiteSpace=wrap;html=1;align=center;" vertex="1" parent="1">
          <mxGeometry x="3250" y="1030" width="100" height="40" as="geometry" />
        </mxCell>
        <mxCell id="rL4idEC9B8gkLVKM_BH1-232" value="Type" style="ellipse;whiteSpace=wrap;html=1;align=center;rotation=-15;" vertex="1" parent="1">
          <mxGeometry x="3150" y="899.56" width="100" height="40" as="geometry" />
        </mxCell>
        <mxCell id="rL4idEC9B8gkLVKM_BH1-233" value="&lt;br&gt;Latitude&lt;div&gt;&lt;br/&gt;&lt;/div&gt;" style="ellipse;whiteSpace=wrap;html=1;align=center;" vertex="1" parent="1">
          <mxGeometry x="3205" y="1099" width="100" height="40" as="geometry" />
        </mxCell>
        <mxCell id="rL4idEC9B8gkLVKM_BH1-234" value="Longitude" style="ellipse;whiteSpace=wrap;html=1;align=center;rotation=-30;" vertex="1" parent="1">
          <mxGeometry x="3320" y="1090" width="100" height="40" as="geometry" />
        </mxCell>
        <mxCell id="rL4idEC9B8gkLVKM_BH1-235" value="" style="endArrow=none;html=1;rounded=0;exitX=0.5;exitY=1;exitDx=0;exitDy=0;entryX=0;entryY=0.5;entryDx=0;entryDy=0;" edge="1" parent="1" source="rL4idEC9B8gkLVKM_BH1-232" target="rL4idEC9B8gkLVKM_BH1-175">
          <mxGeometry relative="1" as="geometry">
            <mxPoint x="3220" y="950" as="sourcePoint" />
            <mxPoint x="3280" y="960" as="targetPoint" />
          </mxGeometry>
        </mxCell>
        <mxCell id="rL4idEC9B8gkLVKM_BH1-236" value="" style="endArrow=none;html=1;rounded=0;entryX=0;entryY=1;entryDx=0;entryDy=0;exitX=0.25;exitY=0;exitDx=0;exitDy=0;" edge="1" parent="1" source="rL4idEC9B8gkLVKM_BH1-175" target="rL4idEC9B8gkLVKM_BH1-229">
          <mxGeometry relative="1" as="geometry">
            <mxPoint x="3260" y="939.56" as="sourcePoint" />
            <mxPoint x="3420" y="939.56" as="targetPoint" />
          </mxGeometry>
        </mxCell>
        <mxCell id="rL4idEC9B8gkLVKM_BH1-237" value="" style="endArrow=none;html=1;rounded=0;exitX=1;exitY=0.5;exitDx=0;exitDy=0;" edge="1" parent="1" source="rL4idEC9B8gkLVKM_BH1-175" target="rL4idEC9B8gkLVKM_BH1-230">
          <mxGeometry relative="1" as="geometry">
            <mxPoint x="3390" y="970" as="sourcePoint" />
            <mxPoint x="3550" y="970" as="targetPoint" />
          </mxGeometry>
        </mxCell>
        <mxCell id="rL4idEC9B8gkLVKM_BH1-238" value="" style="endArrow=none;html=1;rounded=0;exitX=0.5;exitY=1;exitDx=0;exitDy=0;entryX=0.5;entryY=0;entryDx=0;entryDy=0;" edge="1" parent="1" source="rL4idEC9B8gkLVKM_BH1-175" target="rL4idEC9B8gkLVKM_BH1-231">
          <mxGeometry relative="1" as="geometry">
            <mxPoint x="3225" y="1020" as="sourcePoint" />
            <mxPoint x="3385" y="1020" as="targetPoint" />
          </mxGeometry>
        </mxCell>
        <mxCell id="rL4idEC9B8gkLVKM_BH1-239" value="" style="endArrow=none;html=1;rounded=0;entryX=0;entryY=1;entryDx=0;entryDy=0;" edge="1" parent="1" target="rL4idEC9B8gkLVKM_BH1-231">
          <mxGeometry relative="1" as="geometry">
            <mxPoint x="3240" y="1097.67" as="sourcePoint" />
            <mxPoint x="3400" y="1097.67" as="targetPoint" />
          </mxGeometry>
        </mxCell>
        <mxCell id="rL4idEC9B8gkLVKM_BH1-240" value="" style="endArrow=none;html=1;rounded=0;entryX=0.5;entryY=0;entryDx=0;entryDy=0;" edge="1" parent="1" target="rL4idEC9B8gkLVKM_BH1-234">
          <mxGeometry relative="1" as="geometry">
            <mxPoint x="3330" y="1068.67" as="sourcePoint" />
            <mxPoint x="3490" y="1068.67" as="targetPoint" />
          </mxGeometry>
        </mxCell>
        <mxCell id="rL4idEC9B8gkLVKM_BH1-241" value="Score" style="ellipse;whiteSpace=wrap;html=1;align=center;" vertex="1" parent="1">
          <mxGeometry x="3225" y="1420" width="100" height="40" as="geometry" />
        </mxCell>
        <mxCell id="rL4idEC9B8gkLVKM_BH1-242" value="Ranking_ID" style="ellipse;whiteSpace=wrap;html=1;align=center;fontStyle=4;rotation=-30;" vertex="1" parent="1">
          <mxGeometry x="3330" y="1400" width="100" height="40" as="geometry" />
        </mxCell>
        <mxCell id="rL4idEC9B8gkLVKM_BH1-243" value="" style="endArrow=none;html=1;rounded=0;entryX=0.5;entryY=1;entryDx=0;entryDy=0;exitX=0.5;exitY=0;exitDx=0;exitDy=0;" edge="1" parent="1" source="rL4idEC9B8gkLVKM_BH1-241" target="rL4idEC9B8gkLVKM_BH1-176">
          <mxGeometry relative="1" as="geometry">
            <mxPoint x="3190" y="1410" as="sourcePoint" />
            <mxPoint x="3350" y="1410" as="targetPoint" />
          </mxGeometry>
        </mxCell>
        <mxCell id="rL4idEC9B8gkLVKM_BH1-244" value="" style="endArrow=none;html=1;rounded=0;exitX=0.707;exitY=1.029;exitDx=0;exitDy=0;exitPerimeter=0;entryX=0.418;entryY=0.031;entryDx=0;entryDy=0;entryPerimeter=0;" edge="1" parent="1" source="rL4idEC9B8gkLVKM_BH1-176" target="rL4idEC9B8gkLVKM_BH1-242">
          <mxGeometry relative="1" as="geometry">
            <mxPoint x="3320" y="1400" as="sourcePoint" />
            <mxPoint x="3480" y="1400" as="targetPoint" />
          </mxGeometry>
        </mxCell>
        <mxCell id="rL4idEC9B8gkLVKM_BH1-245" value="&amp;nbsp;Ranking_Type" style="ellipse;whiteSpace=wrap;html=1;align=center;" vertex="1" parent="1">
          <mxGeometry x="3242.5" y="1254.1399999999999" width="100" height="40" as="geometry" />
        </mxCell>
        <mxCell id="rL4idEC9B8gkLVKM_BH1-246" value="" style="endArrow=none;html=1;rounded=0;entryX=0.5;entryY=1;entryDx=0;entryDy=0;exitX=0.5;exitY=0;exitDx=0;exitDy=0;" edge="1" parent="1" source="rL4idEC9B8gkLVKM_BH1-176" target="rL4idEC9B8gkLVKM_BH1-245">
          <mxGeometry relative="1" as="geometry">
            <mxPoint x="3220" y="1310" as="sourcePoint" />
            <mxPoint x="3380" y="1310" as="targetPoint" />
          </mxGeometry>
        </mxCell>
        <mxCell id="rL4idEC9B8gkLVKM_BH1-247" value="CASE" style="whiteSpace=wrap;html=1;align=center;" vertex="1" parent="1">
          <mxGeometry x="1490.1412701892218" y="1480.0005080756887" width="110" height="50" as="geometry" />
        </mxCell>
        <mxCell id="rL4idEC9B8gkLVKM_BH1-248" value="Status" style="ellipse;whiteSpace=wrap;html=1;align=center;rotation=30;" vertex="1" parent="1">
          <mxGeometry x="1393.301270189222" y="1536.1105080756888" width="100" height="40" as="geometry" />
        </mxCell>
        <mxCell id="rL4idEC9B8gkLVKM_BH1-249" value="" style="endArrow=none;html=1;rounded=0;exitX=0.5;exitY=1;exitDx=0;exitDy=0;entryX=0;entryY=0;entryDx=0;entryDy=0;" edge="1" parent="1" target="rL4idEC9B8gkLVKM_BH1-247">
          <mxGeometry relative="1" as="geometry">
            <mxPoint x="1453.301270189222" y="1442.5710161513775" as="sourcePoint" />
            <mxPoint x="1590.1412701892218" y="1456.1105080756888" as="targetPoint" />
          </mxGeometry>
        </mxCell>
        <mxCell id="rL4idEC9B8gkLVKM_BH1-250" value="" style="endArrow=none;html=1;rounded=0;entryX=0;entryY=1;entryDx=0;entryDy=0;" edge="1" parent="1" target="rL4idEC9B8gkLVKM_BH1-247">
          <mxGeometry relative="1" as="geometry">
            <mxPoint x="1448.301270189222" y="1535.0005080756887" as="sourcePoint" />
            <mxPoint x="1608.301270189222" y="1535.0005080756887" as="targetPoint" />
          </mxGeometry>
        </mxCell>
        <mxCell id="rL4idEC9B8gkLVKM_BH1-251" value="Case_ID" style="ellipse;whiteSpace=wrap;html=1;align=center;fontStyle=4;rotation=-30;" vertex="1" parent="1">
          <mxGeometry x="1413.301270189222" y="1402.3205080756888" width="100" height="40" as="geometry" />
        </mxCell>
        <mxCell id="rL4idEC9B8gkLVKM_BH1-252" value="Message" style="ellipse;whiteSpace=wrap;html=1;align=center;rotation=-15;" vertex="1" parent="1">
          <mxGeometry x="1490.1399999999999" y="1070" width="100" height="40" as="geometry" />
        </mxCell>
        <mxCell id="rL4idEC9B8gkLVKM_BH1-253" value="Date" style="ellipse;whiteSpace=wrap;html=1;align=center;rotation=-45;" vertex="1" parent="1">
          <mxGeometry x="1620" y="1174.1399999999999" width="100" height="40" as="geometry" />
        </mxCell>
        <mxCell id="rL4idEC9B8gkLVKM_BH1-254" value="Alert_Type" style="ellipse;whiteSpace=wrap;html=1;align=center;rotation=20;" vertex="1" parent="1">
          <mxGeometry x="1525" y="1214.1399999999999" width="100" height="40" as="geometry" />
        </mxCell>
        <mxCell id="rL4idEC9B8gkLVKM_BH1-255" value="" style="endArrow=none;html=1;rounded=0;exitX=0.654;exitY=1.068;exitDx=0;exitDy=0;exitPerimeter=0;entryX=0.25;entryY=0;entryDx=0;entryDy=0;" edge="1" parent="1" source="rL4idEC9B8gkLVKM_BH1-252">
          <mxGeometry relative="1" as="geometry">
            <mxPoint x="1560" y="1100" as="sourcePoint" />
            <mxPoint x="1570.8174999999999" y="1130" as="targetPoint" />
          </mxGeometry>
        </mxCell>
        <mxCell id="rL4idEC9B8gkLVKM_BH1-256" value="" style="endArrow=none;html=1;rounded=0;entryX=0;entryY=0.75;entryDx=0;entryDy=0;" edge="1" parent="1">
          <mxGeometry relative="1" as="geometry">
            <mxPoint x="1506.73" y="1174.1399999999999" as="sourcePoint" />
            <mxPoint x="1550" y="1167.5" as="targetPoint" />
          </mxGeometry>
        </mxCell>
        <mxCell id="rL4idEC9B8gkLVKM_BH1-257" value="" style="endArrow=none;html=1;rounded=0;entryX=0.362;entryY=1.085;entryDx=0;entryDy=0;entryPerimeter=0;" edge="1" parent="1" target="rL4idEC9B8gkLVKM_BH1-341">
          <mxGeometry relative="1" as="geometry">
            <mxPoint x="1563.87" y="1210" as="sourcePoint" />
            <mxPoint x="1591.6350000000002" y="1180" as="targetPoint" />
          </mxGeometry>
        </mxCell>
        <mxCell id="rL4idEC9B8gkLVKM_BH1-258" value="" style="endArrow=none;html=1;rounded=0;exitX=0.5;exitY=1;exitDx=0;exitDy=0;entryX=0.223;entryY=0.014;entryDx=0;entryDy=0;entryPerimeter=0;" edge="1" parent="1" source="rL4idEC9B8gkLVKM_BH1-341" target="rL4idEC9B8gkLVKM_BH1-253">
          <mxGeometry relative="1" as="geometry">
            <mxPoint x="1612.4525" y="1180" as="sourcePoint" />
            <mxPoint x="1720" y="1100" as="targetPoint" />
          </mxGeometry>
        </mxCell>
        <mxCell id="rL4idEC9B8gkLVKM_BH1-259" value="Protection_Level" style="ellipse;whiteSpace=wrap;html=1;align=center;rotation=-45;" vertex="1" parent="1">
          <mxGeometry x="2030" y="1750" width="198.49" height="70" as="geometry" />
        </mxCell>
        <mxCell id="rL4idEC9B8gkLVKM_BH1-260" value="Encryption_Techniques" style="ellipse;whiteSpace=wrap;html=1;align=center;rotation=30;" vertex="1" parent="1">
          <mxGeometry x="1726.37" y="1830.67" width="153.63" height="78.33" as="geometry" />
        </mxCell>
        <mxCell id="rL4idEC9B8gkLVKM_BH1-261" value="Attribute" style="ellipse;whiteSpace=wrap;html=1;align=center;rotation=30;" vertex="1" parent="1">
          <mxGeometry x="1638.87" y="1880.03" width="100" height="40" as="geometry" />
        </mxCell>
        <mxCell id="rL4idEC9B8gkLVKM_BH1-262" value="Attribute" style="ellipse;whiteSpace=wrap;html=1;align=center;" vertex="1" parent="1">
          <mxGeometry x="1723.87" y="1940" width="100" height="40" as="geometry" />
        </mxCell>
        <mxCell id="rL4idEC9B8gkLVKM_BH1-263" value="" style="endArrow=none;html=1;rounded=0;entryX=0.25;entryY=1;entryDx=0;entryDy=0;" edge="1" parent="1">
          <mxGeometry relative="1" as="geometry">
            <mxPoint x="1830" y="1840" as="sourcePoint" />
            <mxPoint x="1846.6775000000002" y="1743" as="targetPoint" />
          </mxGeometry>
        </mxCell>
        <mxCell id="rL4idEC9B8gkLVKM_BH1-264" value="" style="endArrow=none;html=1;rounded=0;entryX=0.5;entryY=1;entryDx=0;entryDy=0;" edge="1" parent="1">
          <mxGeometry relative="1" as="geometry">
            <mxPoint x="1930" y="1866" as="sourcePoint" />
            <mxPoint x="1903.355" y="1743" as="targetPoint" />
          </mxGeometry>
        </mxCell>
        <mxCell id="rL4idEC9B8gkLVKM_BH1-265" value="" style="endArrow=none;html=1;rounded=0;entryX=0.258;entryY=0.11;entryDx=0;entryDy=0;entryPerimeter=0;exitX=0.831;exitY=1.03;exitDx=0;exitDy=0;exitPerimeter=0;" edge="1" parent="1" target="rL4idEC9B8gkLVKM_BH1-259">
          <mxGeometry relative="1" as="geometry">
            <mxPoint x="1978.39601" y="1746" as="sourcePoint" />
            <mxPoint x="2040" y="1770" as="targetPoint" />
          </mxGeometry>
        </mxCell>
        <mxCell id="rL4idEC9B8gkLVKM_BH1-266" value="" style="endArrow=none;html=1;rounded=0;entryX=0.236;entryY=0.944;entryDx=0;entryDy=0;entryPerimeter=0;" edge="1" parent="1" target="rL4idEC9B8gkLVKM_BH1-260">
          <mxGeometry relative="1" as="geometry">
            <mxPoint x="1708.87" y="1890" as="sourcePoint" />
            <mxPoint x="1868.87" y="1890" as="targetPoint" />
          </mxGeometry>
        </mxCell>
        <mxCell id="rL4idEC9B8gkLVKM_BH1-267" value="" style="endArrow=none;html=1;rounded=0;" edge="1" parent="1">
          <mxGeometry relative="1" as="geometry">
            <mxPoint x="1776.73" y="1938.57" as="sourcePoint" />
            <mxPoint x="1790" y="1910" as="targetPoint" />
          </mxGeometry>
        </mxCell>
        <mxCell id="rL4idEC9B8gkLVKM_BH1-268" value="Story_ID," style="ellipse;whiteSpace=wrap;html=1;align=center;fontStyle=4;rotation=15;" vertex="1" parent="1">
          <mxGeometry x="2474" y="1789.73" width="101.29" height="60" as="geometry" />
        </mxCell>
        <mxCell id="rL4idEC9B8gkLVKM_BH1-269" value="Attribute" style="ellipse;whiteSpace=wrap;html=1;align=center;rotation=-15;" vertex="1" parent="1">
          <mxGeometry x="2590" y="1801.85" width="100" height="58.21" as="geometry" />
        </mxCell>
        <mxCell id="rL4idEC9B8gkLVKM_BH1-270" value="Attribute" style="ellipse;whiteSpace=wrap;html=1;align=center;rotation=-45;" vertex="1" parent="1">
          <mxGeometry x="2683.04" y="1760.27" width="121.1" height="59.73" as="geometry" />
        </mxCell>
        <mxCell id="rL4idEC9B8gkLVKM_BH1-271" value="" style="endArrow=none;html=1;rounded=0;exitX=0.5;exitY=0;exitDx=0;exitDy=0;entryX=0.341;entryY=1.037;entryDx=0;entryDy=0;entryPerimeter=0;" edge="1" parent="1" source="rL4idEC9B8gkLVKM_BH1-268" target="rL4idEC9B8gkLVKM_BH1-178">
          <mxGeometry relative="1" as="geometry">
            <mxPoint x="2530" y="1770" as="sourcePoint" />
            <mxPoint x="2690" y="1770" as="targetPoint" />
          </mxGeometry>
        </mxCell>
        <mxCell id="rL4idEC9B8gkLVKM_BH1-272" value="" style="endArrow=none;html=1;rounded=0;exitX=0.5;exitY=1;exitDx=0;exitDy=0;entryX=0.348;entryY=-0.023;entryDx=0;entryDy=0;entryPerimeter=0;" edge="1" parent="1" source="rL4idEC9B8gkLVKM_BH1-178" target="rL4idEC9B8gkLVKM_BH1-269">
          <mxGeometry relative="1" as="geometry">
            <mxPoint x="2660" y="1759.2" as="sourcePoint" />
            <mxPoint x="2820" y="1759.2" as="targetPoint" />
          </mxGeometry>
        </mxCell>
        <mxCell id="rL4idEC9B8gkLVKM_BH1-273" value="" style="endArrow=none;html=1;rounded=0;entryX=0.5;entryY=0;entryDx=0;entryDy=0;" edge="1" parent="1" target="rL4idEC9B8gkLVKM_BH1-270">
          <mxGeometry relative="1" as="geometry">
            <mxPoint x="2680" y="1750" as="sourcePoint" />
            <mxPoint x="2700" y="1670" as="targetPoint" />
          </mxGeometry>
        </mxCell>
        <mxCell id="rL4idEC9B8gkLVKM_BH1-274" value="Data" style="ellipse;whiteSpace=wrap;html=1;align=center;rotation=5;" vertex="1" parent="1">
          <mxGeometry x="2924.02" y="1797.57" width="110.87" height="60" as="geometry" />
        </mxCell>
        <mxCell id="rL4idEC9B8gkLVKM_BH1-275" value="&#xa;Analytics_ID&#xa;&#xa;" style="ellipse;whiteSpace=wrap;html=1;align=center;fontStyle=4;rotation=-45;" vertex="1" parent="1">
          <mxGeometry x="3151.87" y="1700.12" width="108.45" height="70" as="geometry" />
        </mxCell>
        <mxCell id="rL4idEC9B8gkLVKM_BH1-276" value="Type" style="ellipse;whiteSpace=wrap;html=1;align=center;rotation=-15;" vertex="1" parent="1">
          <mxGeometry x="3050" y="1775.4299999999998" width="116.08" height="72.59" as="geometry" />
        </mxCell>
        <mxCell id="rL4idEC9B8gkLVKM_BH1-277" value="" style="endArrow=none;html=1;rounded=0;exitX=0.5;exitY=1;exitDx=0;exitDy=0;" edge="1" parent="1" source="rL4idEC9B8gkLVKM_BH1-177">
          <mxGeometry relative="1" as="geometry">
            <mxPoint x="2980" y="1750" as="sourcePoint" />
            <mxPoint x="2980" y="1797" as="targetPoint" />
          </mxGeometry>
        </mxCell>
        <mxCell id="rL4idEC9B8gkLVKM_BH1-278" value="" style="endArrow=none;html=1;rounded=0;entryX=0.34;entryY=0.053;entryDx=0;entryDy=0;entryPerimeter=0;exitX=0.621;exitY=0.983;exitDx=0;exitDy=0;exitPerimeter=0;" edge="1" parent="1" source="rL4idEC9B8gkLVKM_BH1-177" target="rL4idEC9B8gkLVKM_BH1-276">
          <mxGeometry relative="1" as="geometry">
            <mxPoint x="3065" y="1740" as="sourcePoint" />
            <mxPoint x="3090" y="1770" as="targetPoint" />
          </mxGeometry>
        </mxCell>
        <mxCell id="rL4idEC9B8gkLVKM_BH1-279" value="" style="endArrow=none;html=1;rounded=0;exitX=1;exitY=0.75;exitDx=0;exitDy=0;" edge="1" parent="1" source="rL4idEC9B8gkLVKM_BH1-177" target="rL4idEC9B8gkLVKM_BH1-275">
          <mxGeometry relative="1" as="geometry">
            <mxPoint x="3100" y="1709.29" as="sourcePoint" />
            <mxPoint x="3260" y="1709.29" as="targetPoint" />
          </mxGeometry>
        </mxCell>
        <mxCell id="rL4idEC9B8gkLVKM_BH1-280" value="Submits" style="shape=rhombus;perimeter=rhombusPerimeter;whiteSpace=wrap;html=1;align=center;rotation=30;" vertex="1" parent="1">
          <mxGeometry x="1855" y="950" width="157.5" height="110" as="geometry" />
        </mxCell>
        <mxCell id="rL4idEC9B8gkLVKM_BH1-281" value="" style="endArrow=none;html=1;rounded=0;entryX=0;entryY=0.5;entryDx=0;entryDy=0;" edge="1" parent="1" target="rL4idEC9B8gkLVKM_BH1-280">
          <mxGeometry relative="1" as="geometry">
            <mxPoint x="1760" y="810" as="sourcePoint" />
            <mxPoint x="1860" y="950" as="targetPoint" />
            <Array as="points">
              <mxPoint x="1820" y="900" />
            </Array>
          </mxGeometry>
        </mxCell>
        <mxCell id="rL4idEC9B8gkLVKM_BH1-282" value="1" style="resizable=0;html=1;whiteSpace=wrap;align=right;verticalAlign=bottom;" connectable="0" vertex="1" parent="rL4idEC9B8gkLVKM_BH1-281">
          <mxGeometry x="1" relative="1" as="geometry">
            <mxPoint x="11" y="-15" as="offset" />
          </mxGeometry>
        </mxCell>
        <mxCell id="rL4idEC9B8gkLVKM_BH1-283" value="" style="endArrow=none;html=1;rounded=0;exitX=1;exitY=0.5;exitDx=0;exitDy=0;entryX=-0.005;entryY=0.901;entryDx=0;entryDy=0;entryPerimeter=0;" edge="1" parent="1" source="rL4idEC9B8gkLVKM_BH1-280" target="rL4idEC9B8gkLVKM_BH1-172">
          <mxGeometry relative="1" as="geometry">
            <mxPoint x="2210" y="1050" as="sourcePoint" />
            <mxPoint x="2500" y="1210" as="targetPoint" />
          </mxGeometry>
        </mxCell>
        <mxCell id="rL4idEC9B8gkLVKM_BH1-284" value="N" style="resizable=0;html=1;whiteSpace=wrap;align=right;verticalAlign=bottom;" connectable="0" vertex="1" parent="rL4idEC9B8gkLVKM_BH1-283">
          <mxGeometry x="1" relative="1" as="geometry">
            <mxPoint x="-160" y="-70" as="offset" />
          </mxGeometry>
        </mxCell>
        <mxCell id="rL4idEC9B8gkLVKM_BH1-285" value="belongs_to" style="shape=rhombus;perimeter=rhombusPerimeter;whiteSpace=wrap;html=1;align=center;rotation=-60;" vertex="1" parent="1">
          <mxGeometry x="2720" y="960" width="120" height="60" as="geometry" />
        </mxCell>
        <mxCell id="rL4idEC9B8gkLVKM_BH1-286" value="" style="endArrow=none;html=1;rounded=0;exitX=1;exitY=1;exitDx=0;exitDy=0;entryX=1;entryY=0.5;entryDx=0;entryDy=0;" edge="1" parent="1" source="rL4idEC9B8gkLVKM_BH1-174" target="rL4idEC9B8gkLVKM_BH1-285">
          <mxGeometry relative="1" as="geometry">
            <mxPoint x="2790" y="860" as="sourcePoint" />
            <mxPoint x="2860" y="960" as="targetPoint" />
          </mxGeometry>
        </mxCell>
        <mxCell id="rL4idEC9B8gkLVKM_BH1-287" value="1" style="resizable=0;html=1;whiteSpace=wrap;align=right;verticalAlign=bottom;" connectable="0" vertex="1" parent="rL4idEC9B8gkLVKM_BH1-286">
          <mxGeometry x="1" relative="1" as="geometry">
            <mxPoint x="55" y="-10" as="offset" />
          </mxGeometry>
        </mxCell>
        <mxCell id="rL4idEC9B8gkLVKM_BH1-288" value="" style="endArrow=none;html=1;rounded=0;exitX=0;exitY=0.5;exitDx=0;exitDy=0;entryX=1;entryY=0;entryDx=0;entryDy=0;" edge="1" parent="1" source="rL4idEC9B8gkLVKM_BH1-285" target="rL4idEC9B8gkLVKM_BH1-172">
          <mxGeometry relative="1" as="geometry">
            <mxPoint x="2740" y="1040" as="sourcePoint" />
            <mxPoint x="2690" y="1140" as="targetPoint" />
          </mxGeometry>
        </mxCell>
        <mxCell id="rL4idEC9B8gkLVKM_BH1-289" value="N" style="resizable=0;html=1;whiteSpace=wrap;align=right;verticalAlign=bottom;" connectable="0" vertex="1" parent="rL4idEC9B8gkLVKM_BH1-288">
          <mxGeometry x="1" relative="1" as="geometry">
            <mxPoint x="20" y="-51" as="offset" />
          </mxGeometry>
        </mxCell>
        <mxCell id="rL4idEC9B8gkLVKM_BH1-290" value="&amp;nbsp;Occurs_At&amp;nbsp;" style="shape=rhombus;perimeter=rhombusPerimeter;whiteSpace=wrap;html=1;align=center;rotation=70;" vertex="1" parent="1">
          <mxGeometry x="2416.66" y="945" width="120" height="60" as="geometry" />
        </mxCell>
        <mxCell id="rL4idEC9B8gkLVKM_BH1-291" value="" style="endArrow=none;html=1;rounded=0;exitX=1;exitY=0.5;exitDx=0;exitDy=0;entryX=0.146;entryY=0.05;entryDx=0;entryDy=0;entryPerimeter=0;" edge="1" parent="1" source="rL4idEC9B8gkLVKM_BH1-290" target="rL4idEC9B8gkLVKM_BH1-172">
          <mxGeometry relative="1" as="geometry">
            <mxPoint x="2640" y="1010" as="sourcePoint" />
            <mxPoint x="2800" y="1010" as="targetPoint" />
          </mxGeometry>
        </mxCell>
        <mxCell id="rL4idEC9B8gkLVKM_BH1-292" value="N" style="resizable=0;html=1;whiteSpace=wrap;align=right;verticalAlign=bottom;" connectable="0" vertex="1" parent="rL4idEC9B8gkLVKM_BH1-291">
          <mxGeometry x="1" relative="1" as="geometry">
            <mxPoint x="-36" y="-73" as="offset" />
          </mxGeometry>
        </mxCell>
        <mxCell id="rL4idEC9B8gkLVKM_BH1-293" value="" style="endArrow=none;html=1;rounded=0;exitX=1;exitY=1;exitDx=0;exitDy=0;entryX=0;entryY=0.5;entryDx=0;entryDy=0;" edge="1" parent="1" source="rL4idEC9B8gkLVKM_BH1-173" target="rL4idEC9B8gkLVKM_BH1-290">
          <mxGeometry relative="1" as="geometry">
            <mxPoint x="2505" y="927.05" as="sourcePoint" />
            <mxPoint x="2665" y="927.05" as="targetPoint" />
          </mxGeometry>
        </mxCell>
        <mxCell id="rL4idEC9B8gkLVKM_BH1-294" value="1" style="resizable=0;html=1;whiteSpace=wrap;align=right;verticalAlign=bottom;" connectable="0" vertex="1" parent="rL4idEC9B8gkLVKM_BH1-293">
          <mxGeometry x="1" relative="1" as="geometry">
            <mxPoint x="-11" y="-9" as="offset" />
          </mxGeometry>
        </mxCell>
        <mxCell id="rL4idEC9B8gkLVKM_BH1-295" value="Has_Evidence" style="shape=rhombus;perimeter=rhombusPerimeter;whiteSpace=wrap;html=1;align=center;rotation=-15;" vertex="1" parent="1">
          <mxGeometry x="2940" y="1020" width="120" height="70" as="geometry" />
        </mxCell>
        <mxCell id="rL4idEC9B8gkLVKM_BH1-296" value="" style="endArrow=none;html=1;rounded=0;" edge="1" parent="1">
          <mxGeometry relative="1" as="geometry">
            <mxPoint x="2690" y="1150" as="sourcePoint" />
            <mxPoint x="2940" y="1070" as="targetPoint" />
          </mxGeometry>
        </mxCell>
        <mxCell id="rL4idEC9B8gkLVKM_BH1-297" value="1" style="resizable=0;html=1;whiteSpace=wrap;align=right;verticalAlign=bottom;" connectable="0" vertex="1" parent="rL4idEC9B8gkLVKM_BH1-296">
          <mxGeometry x="1" relative="1" as="geometry">
            <mxPoint x="-110" y="15" as="offset" />
          </mxGeometry>
        </mxCell>
        <mxCell id="rL4idEC9B8gkLVKM_BH1-298" value="" style="endArrow=none;html=1;rounded=0;entryX=0;entryY=1;entryDx=0;entryDy=0;" edge="1" parent="1" target="rL4idEC9B8gkLVKM_BH1-175">
          <mxGeometry relative="1" as="geometry">
            <mxPoint x="3060" y="1040" as="sourcePoint" />
            <mxPoint x="3200" y="1030" as="targetPoint" />
          </mxGeometry>
        </mxCell>
        <mxCell id="rL4idEC9B8gkLVKM_BH1-299" value="N" style="resizable=0;html=1;whiteSpace=wrap;align=right;verticalAlign=bottom;" connectable="0" vertex="1" parent="rL4idEC9B8gkLVKM_BH1-298">
          <mxGeometry x="1" relative="1" as="geometry">
            <mxPoint x="-120" y="10" as="offset" />
          </mxGeometry>
        </mxCell>
        <mxCell id="rL4idEC9B8gkLVKM_BH1-300" value="Leads_To&amp;nbsp;" style="shape=rhombus;perimeter=rhombusPerimeter;whiteSpace=wrap;html=1;align=center;rotation=-35;" vertex="1" parent="1">
          <mxGeometry x="1901.59" y="1320" width="120" height="60" as="geometry" />
        </mxCell>
        <mxCell id="rL4idEC9B8gkLVKM_BH1-301" value="" style="endArrow=none;html=1;rounded=0;entryX=1;entryY=0.25;entryDx=0;entryDy=0;exitX=0;exitY=0.5;exitDx=0;exitDy=0;" edge="1" parent="1" source="rL4idEC9B8gkLVKM_BH1-300" target="rL4idEC9B8gkLVKM_BH1-247">
          <mxGeometry relative="1" as="geometry">
            <mxPoint x="1890" y="1390" as="sourcePoint" />
            <mxPoint x="1818.94" y="1442.3200000000002" as="targetPoint" />
          </mxGeometry>
        </mxCell>
        <mxCell id="rL4idEC9B8gkLVKM_BH1-302" value="1" style="resizable=0;html=1;whiteSpace=wrap;align=right;verticalAlign=bottom;" connectable="0" vertex="1" parent="rL4idEC9B8gkLVKM_BH1-301">
          <mxGeometry x="1" relative="1" as="geometry">
            <mxPoint x="131" y="-62" as="offset" />
          </mxGeometry>
        </mxCell>
        <mxCell id="rL4idEC9B8gkLVKM_BH1-303" value="" style="endArrow=none;html=1;rounded=0;exitX=1;exitY=0.5;exitDx=0;exitDy=0;" edge="1" parent="1" source="rL4idEC9B8gkLVKM_BH1-300">
          <mxGeometry relative="1" as="geometry">
            <mxPoint x="2010" y="1310" as="sourcePoint" />
            <mxPoint x="2510" y="1220" as="targetPoint" />
          </mxGeometry>
        </mxCell>
        <mxCell id="rL4idEC9B8gkLVKM_BH1-304" value="1" style="resizable=0;html=1;whiteSpace=wrap;align=right;verticalAlign=bottom;" connectable="0" vertex="1" parent="rL4idEC9B8gkLVKM_BH1-303">
          <mxGeometry x="1" relative="1" as="geometry">
            <mxPoint x="-267" y="44" as="offset" />
          </mxGeometry>
        </mxCell>
        <mxCell id="rL4idEC9B8gkLVKM_BH1-305" value="" style="endArrow=none;html=1;rounded=0;dashed=1;dashPattern=1 2;entryX=0.5;entryY=0;entryDx=0;entryDy=0;exitX=0.5;exitY=1;exitDx=0;exitDy=0;" edge="1" parent="1" source="rL4idEC9B8gkLVKM_BH1-179">
          <mxGeometry relative="1" as="geometry">
            <mxPoint x="1750" y="820" as="sourcePoint" />
            <mxPoint x="1773.87" y="1010" as="targetPoint" />
            <Array as="points">
              <mxPoint x="1780" y="1010" />
            </Array>
          </mxGeometry>
        </mxCell>
        <mxCell id="rL4idEC9B8gkLVKM_BH1-306" value="1" style="resizable=0;html=1;whiteSpace=wrap;align=right;verticalAlign=bottom;" connectable="0" vertex="1" parent="rL4idEC9B8gkLVKM_BH1-305">
          <mxGeometry x="1" relative="1" as="geometry">
            <mxPoint x="13" y="-50" as="offset" />
          </mxGeometry>
        </mxCell>
        <mxCell id="rL4idEC9B8gkLVKM_BH1-307" value="" style="endArrow=none;html=1;rounded=0;dashed=1;dashPattern=1 2;entryX=1;entryY=0;entryDx=0;entryDy=0;exitX=0.5;exitY=1;exitDx=0;exitDy=0;" edge="1" parent="1" source="rL4idEC9B8gkLVKM_BH1-340">
          <mxGeometry relative="1" as="geometry">
            <mxPoint x="1780" y="1070" as="sourcePoint" />
            <mxPoint x="1633.27" y="1130" as="targetPoint" />
          </mxGeometry>
        </mxCell>
        <mxCell id="rL4idEC9B8gkLVKM_BH1-308" value="N" style="resizable=0;html=1;whiteSpace=wrap;align=right;verticalAlign=bottom;" connectable="0" vertex="1" parent="rL4idEC9B8gkLVKM_BH1-307">
          <mxGeometry x="1" relative="1" as="geometry">
            <mxPoint x="60" y="-31" as="offset" />
          </mxGeometry>
        </mxCell>
        <mxCell id="rL4idEC9B8gkLVKM_BH1-309" value="" style="endArrow=none;html=1;rounded=0;dashed=1;dashPattern=1 2;entryX=1;entryY=0.5;entryDx=0;entryDy=0;exitX=0.25;exitY=1;exitDx=0;exitDy=0;" edge="1" parent="1" source="rL4idEC9B8gkLVKM_BH1-172">
          <mxGeometry relative="1" as="geometry">
            <mxPoint x="2560" y="1230" as="sourcePoint" />
            <mxPoint x="2504.14912265734" y="1499.7504138189374" as="targetPoint" />
          </mxGeometry>
        </mxCell>
        <mxCell id="rL4idEC9B8gkLVKM_BH1-310" value="1" style="resizable=0;html=1;whiteSpace=wrap;align=right;verticalAlign=bottom;" connectable="0" vertex="1" parent="rL4idEC9B8gkLVKM_BH1-309">
          <mxGeometry x="1" relative="1" as="geometry">
            <mxPoint x="6" y="-50" as="offset" />
          </mxGeometry>
        </mxCell>
        <mxCell id="rL4idEC9B8gkLVKM_BH1-311" value="" style="endArrow=none;html=1;rounded=0;dashed=1;dashPattern=1 2;entryX=1;entryY=0;entryDx=0;entryDy=0;exitX=0;exitY=0.5;exitDx=0;exitDy=0;" edge="1" parent="1" source="rL4idEC9B8gkLVKM_BH1-337" target="rL4idEC9B8gkLVKM_BH1-338">
          <mxGeometry relative="1" as="geometry">
            <mxPoint x="2405.8508773426606" y="1568.5795861810627" as="sourcePoint" />
            <mxPoint x="2016.7100000000005" y="1643.0000000000002" as="targetPoint" />
          </mxGeometry>
        </mxCell>
        <mxCell id="rL4idEC9B8gkLVKM_BH1-312" value="1" style="resizable=0;html=1;whiteSpace=wrap;align=right;verticalAlign=bottom;" connectable="0" vertex="1" parent="rL4idEC9B8gkLVKM_BH1-311">
          <mxGeometry x="1" relative="1" as="geometry">
            <mxPoint x="177" y="-50" as="offset" />
          </mxGeometry>
        </mxCell>
        <mxCell id="rL4idEC9B8gkLVKM_BH1-313" value="Generates_ImpactStory&amp;nbsp;" style="shape=rhombus;perimeter=rhombusPerimeter;whiteSpace=wrap;html=1;align=center;" vertex="1" parent="1">
          <mxGeometry x="2600" y="1380" width="160" height="90" as="geometry" />
        </mxCell>
        <mxCell id="rL4idEC9B8gkLVKM_BH1-314" value="" style="endArrow=none;html=1;rounded=0;exitX=0.88;exitY=0.985;exitDx=0;exitDy=0;entryX=0.5;entryY=0;entryDx=0;entryDy=0;exitPerimeter=0;" edge="1" parent="1" source="rL4idEC9B8gkLVKM_BH1-172" target="rL4idEC9B8gkLVKM_BH1-313">
          <mxGeometry relative="1" as="geometry">
            <mxPoint x="2630" y="1460" as="sourcePoint" />
            <mxPoint x="2790" y="1460" as="targetPoint" />
          </mxGeometry>
        </mxCell>
        <mxCell id="rL4idEC9B8gkLVKM_BH1-315" value="1" style="resizable=0;html=1;whiteSpace=wrap;align=right;verticalAlign=bottom;" connectable="0" vertex="1" parent="rL4idEC9B8gkLVKM_BH1-314">
          <mxGeometry x="1" relative="1" as="geometry">
            <mxPoint x="3" y="-70" as="offset" />
          </mxGeometry>
        </mxCell>
        <mxCell id="rL4idEC9B8gkLVKM_BH1-316" value="" style="endArrow=none;html=1;rounded=0;entryX=0.5;entryY=0;entryDx=0;entryDy=0;exitX=0.5;exitY=1;exitDx=0;exitDy=0;" edge="1" parent="1" source="rL4idEC9B8gkLVKM_BH1-313" target="rL4idEC9B8gkLVKM_BH1-178">
          <mxGeometry relative="1" as="geometry">
            <mxPoint x="2660" y="1400" as="sourcePoint" />
            <mxPoint x="2820" y="1400" as="targetPoint" />
          </mxGeometry>
        </mxCell>
        <mxCell id="rL4idEC9B8gkLVKM_BH1-317" value="N" style="resizable=0;html=1;whiteSpace=wrap;align=right;verticalAlign=bottom;" connectable="0" vertex="1" parent="rL4idEC9B8gkLVKM_BH1-316">
          <mxGeometry x="1" relative="1" as="geometry">
            <mxPoint x="15" y="-100" as="offset" />
          </mxGeometry>
        </mxCell>
        <mxCell id="rL4idEC9B8gkLVKM_BH1-318" value="Generates_Analytics&lt;div&gt;&lt;br/&gt;&lt;/div&gt;" style="shape=rhombus;perimeter=rhombusPerimeter;whiteSpace=wrap;html=1;align=center;rotation=-30;" vertex="1" parent="1">
          <mxGeometry x="2760" y="1388.92" width="157.62" height="103.3" as="geometry" />
        </mxCell>
        <mxCell id="rL4idEC9B8gkLVKM_BH1-319" value="" style="endArrow=none;html=1;rounded=0;dashed=1;dashPattern=1 2;entryX=1;entryY=1;entryDx=0;entryDy=0;exitX=0.5;exitY=0;exitDx=0;exitDy=0;" edge="1" parent="1" source="rL4idEC9B8gkLVKM_BH1-318">
          <mxGeometry relative="1" as="geometry">
            <mxPoint x="2803.04" y="1400" as="sourcePoint" />
            <mxPoint x="2683.04" y="1220" as="targetPoint" />
          </mxGeometry>
        </mxCell>
        <mxCell id="rL4idEC9B8gkLVKM_BH1-320" value="M" style="resizable=0;html=1;whiteSpace=wrap;align=left;verticalAlign=bottom;" connectable="0" vertex="1" parent="rL4idEC9B8gkLVKM_BH1-319">
          <mxGeometry x="-1" relative="1" as="geometry">
            <mxPoint x="-9" y="-16" as="offset" />
          </mxGeometry>
        </mxCell>
        <mxCell id="rL4idEC9B8gkLVKM_BH1-321" value="" style="endArrow=none;html=1;rounded=0;dashed=1;dashPattern=1 2;exitX=0.5;exitY=1;exitDx=0;exitDy=0;entryX=0;entryY=0;entryDx=0;entryDy=0;" edge="1" parent="1" source="rL4idEC9B8gkLVKM_BH1-318" target="rL4idEC9B8gkLVKM_BH1-177">
          <mxGeometry relative="1" as="geometry">
            <mxPoint x="3080" y="1360" as="sourcePoint" />
            <mxPoint x="2970" y="1640" as="targetPoint" />
          </mxGeometry>
        </mxCell>
        <mxCell id="rL4idEC9B8gkLVKM_BH1-322" value="N" style="resizable=0;html=1;whiteSpace=wrap;align=right;verticalAlign=bottom;" connectable="0" vertex="1" parent="rL4idEC9B8gkLVKM_BH1-321">
          <mxGeometry x="1" relative="1" as="geometry">
            <mxPoint x="-10" y="-70" as="offset" />
          </mxGeometry>
        </mxCell>
        <mxCell id="rL4idEC9B8gkLVKM_BH1-323" value="Affects_Ranking&amp;nbsp;" style="shape=rhombus;perimeter=rhombusPerimeter;whiteSpace=wrap;html=1;align=center;rotation=20;" vertex="1" parent="1">
          <mxGeometry x="2960" y="1220" width="120" height="60" as="geometry" />
        </mxCell>
        <mxCell id="rL4idEC9B8gkLVKM_BH1-324" value="" style="endArrow=none;html=1;rounded=0;dashed=1;dashPattern=1 2;entryX=1;entryY=0.75;entryDx=0;entryDy=0;" edge="1" parent="1" target="rL4idEC9B8gkLVKM_BH1-172">
          <mxGeometry relative="1" as="geometry">
            <mxPoint x="2960" y="1230" as="sourcePoint" />
            <mxPoint x="3000" y="1220" as="targetPoint" />
            <Array as="points" />
          </mxGeometry>
        </mxCell>
        <mxCell id="rL4idEC9B8gkLVKM_BH1-325" value="M" style="resizable=0;html=1;whiteSpace=wrap;align=left;verticalAlign=bottom;" connectable="0" vertex="1" parent="rL4idEC9B8gkLVKM_BH1-324">
          <mxGeometry x="-1" relative="1" as="geometry">
            <mxPoint x="-80" y="-10" as="offset" />
          </mxGeometry>
        </mxCell>
        <mxCell id="rL4idEC9B8gkLVKM_BH1-326" value="" style="endArrow=none;html=1;rounded=0;dashed=1;dashPattern=1 2;exitX=1;exitY=0.5;exitDx=0;exitDy=0;entryX=0;entryY=0;entryDx=0;entryDy=0;" edge="1" parent="1" source="rL4idEC9B8gkLVKM_BH1-323" target="rL4idEC9B8gkLVKM_BH1-176">
          <mxGeometry relative="1" as="geometry">
            <mxPoint x="3100" y="1400" as="sourcePoint" />
            <mxPoint x="3260" y="1400" as="targetPoint" />
          </mxGeometry>
        </mxCell>
        <mxCell id="rL4idEC9B8gkLVKM_BH1-327" value="N" style="resizable=0;html=1;whiteSpace=wrap;align=right;verticalAlign=bottom;" connectable="0" vertex="1" parent="rL4idEC9B8gkLVKM_BH1-326">
          <mxGeometry x="1" relative="1" as="geometry">
            <mxPoint x="-45" y="-40" as="offset" />
          </mxGeometry>
        </mxCell>
        <mxCell id="rL4idEC9B8gkLVKM_BH1-328" value="&lt;font style=&quot;font-size: 6px;&quot;&gt;Is_Followed_By&lt;/font&gt;" style="shape=rhombus;perimeter=rhombusPerimeter;whiteSpace=wrap;html=1;align=center;" vertex="1" parent="1">
          <mxGeometry x="2555" y="1290" width="90" height="60" as="geometry" />
        </mxCell>
        <mxCell id="rL4idEC9B8gkLVKM_BH1-329" value="" style="shape=link;html=1;rounded=0;entryX=0;entryY=0.5;entryDx=0;entryDy=0;exitX=0.346;exitY=1.025;exitDx=0;exitDy=0;exitPerimeter=0;" edge="1" parent="1" source="rL4idEC9B8gkLVKM_BH1-172" target="rL4idEC9B8gkLVKM_BH1-328">
          <mxGeometry relative="1" as="geometry">
            <mxPoint x="2560" y="1220" as="sourcePoint" />
            <mxPoint x="2790" y="1190" as="targetPoint" />
          </mxGeometry>
        </mxCell>
        <mxCell id="rL4idEC9B8gkLVKM_BH1-330" value="1" style="resizable=0;html=1;whiteSpace=wrap;align=right;verticalAlign=bottom;" connectable="0" vertex="1" parent="rL4idEC9B8gkLVKM_BH1-329">
          <mxGeometry x="1" relative="1" as="geometry">
            <mxPoint x="20" y="-30" as="offset" />
          </mxGeometry>
        </mxCell>
        <mxCell id="rL4idEC9B8gkLVKM_BH1-331" value="&lt;font style=&quot;font-size: 8px;&quot;&gt;report1&lt;/font&gt;" style="text;html=1;align=center;verticalAlign=middle;resizable=0;points=[];autosize=1;strokeColor=none;fillColor=none;rotation=-75;" vertex="1" parent="1">
          <mxGeometry x="2550" y="1240" width="50" height="30" as="geometry" />
        </mxCell>
        <mxCell id="rL4idEC9B8gkLVKM_BH1-332" value="&lt;font style=&quot;font-size: 6px;&quot;&gt;report2&lt;/font&gt;" style="text;html=1;align=center;verticalAlign=middle;resizable=0;points=[];autosize=1;strokeColor=none;fillColor=none;rotation=90;" vertex="1" parent="1">
          <mxGeometry x="2605" y="1224.1399999999999" width="40" height="30" as="geometry" />
        </mxCell>
        <mxCell id="rL4idEC9B8gkLVKM_BH1-333" value="Title" style="ellipse;whiteSpace=wrap;html=1;align=center;" vertex="1" parent="1">
          <mxGeometry x="2640" y="1010" width="100" height="40" as="geometry" />
        </mxCell>
        <mxCell id="rL4idEC9B8gkLVKM_BH1-334" value="" style="endArrow=none;html=1;rounded=0;entryX=0.5;entryY=1;entryDx=0;entryDy=0;exitX=0.75;exitY=0;exitDx=0;exitDy=0;" edge="1" parent="1" source="rL4idEC9B8gkLVKM_BH1-172" target="rL4idEC9B8gkLVKM_BH1-333">
          <mxGeometry relative="1" as="geometry">
            <mxPoint x="2650" y="1140" as="sourcePoint" />
            <mxPoint x="2800" y="1054.33" as="targetPoint" />
          </mxGeometry>
        </mxCell>
        <mxCell id="rL4idEC9B8gkLVKM_BH1-335" value="" style="shape=link;html=1;rounded=0;entryX=0.972;entryY=0.413;entryDx=0;entryDy=0;entryPerimeter=0;exitX=0.009;exitY=0.27;exitDx=0;exitDy=0;exitPerimeter=0;" edge="1" parent="1" source="rL4idEC9B8gkLVKM_BH1-332" target="rL4idEC9B8gkLVKM_BH1-328">
          <mxGeometry relative="1" as="geometry">
            <mxPoint x="2550" y="1280" as="sourcePoint" />
            <mxPoint x="2710" y="1280" as="targetPoint" />
          </mxGeometry>
        </mxCell>
        <mxCell id="rL4idEC9B8gkLVKM_BH1-336" value="N" style="resizable=0;html=1;whiteSpace=wrap;align=right;verticalAlign=bottom;" connectable="0" vertex="1" parent="rL4idEC9B8gkLVKM_BH1-335">
          <mxGeometry x="1" relative="1" as="geometry" />
        </mxCell>
        <mxCell id="rL4idEC9B8gkLVKM_BH1-337" value="Has_Protection&amp;nbsp;" style="shape=rhombus;double=1;perimeter=rhombusPerimeter;whiteSpace=wrap;html=1;align=center;rotation=-45;" vertex="1" parent="1">
          <mxGeometry x="2410" y="1490" width="112.44" height="104.14" as="geometry" />
        </mxCell>
        <mxCell id="rL4idEC9B8gkLVKM_BH1-338" value="WHISTLEBLOWERPROTECTION" style="shape=ext;margin=3;double=1;whiteSpace=wrap;html=1;align=center;" vertex="1" parent="1">
          <mxGeometry x="1835.68" y="1665.43" width="196.13" height="110" as="geometry" />
        </mxCell>
        <mxCell id="rL4idEC9B8gkLVKM_BH1-339" value="&lt;span style=&quot;border-bottom: 1px dotted&quot;&gt;Protection_ID&lt;/span&gt;" style="ellipse;whiteSpace=wrap;html=1;align=center;" vertex="1" parent="1">
          <mxGeometry x="1880" y="1860" width="150" height="60.03" as="geometry" />
        </mxCell>
        <mxCell id="rL4idEC9B8gkLVKM_BH1-340" value="&amp;nbsp;Subscribes_To&amp;nbsp;" style="shape=rhombus;double=1;perimeter=rhombusPerimeter;whiteSpace=wrap;html=1;align=center;" vertex="1" parent="1">
          <mxGeometry x="1720" y="1005" width="120" height="60" as="geometry" />
        </mxCell>
        <mxCell id="rL4idEC9B8gkLVKM_BH1-341" value="Alert" style="shape=ext;margin=3;double=1;whiteSpace=wrap;html=1;align=center;" vertex="1" parent="1">
          <mxGeometry x="1548.87" y="1125" width="100" height="40" as="geometry" />
        </mxCell>
        <mxCell id="rL4idEC9B8gkLVKM_BH1-342" value="&lt;span style=&quot;border-bottom: 1px dotted&quot;&gt;Alert_ID&lt;/span&gt;" style="ellipse;whiteSpace=wrap;html=1;align=center;" vertex="1" parent="1">
          <mxGeometry x="1413.3" y="1160" width="100" height="40" as="geometry" />
        </mxCell>
      </root>
    </mxGraphModel>
  </diagram>
</mxfile>
